<svg width="30" height="30" viewBox="0 0 30 30" fill="none" xmlns="http://www.w3.org/2000/svg">
<g id="copy">
<path id="Icon" d="M21 22.5C22.4001 22.5 23.1002 22.5 23.635 22.2275C24.1054 21.9878 24.4878 21.6054 24.7275 21.135C25 20.6002 25 19.9001 25 18.5V6.5C25 5.09987 25 4.3998 24.7275 3.86502C24.4878 3.39462 24.1054 3.01217 23.635 2.77248C23.1002 2.5 22.4001 2.5 21 2.5H14C12.5999 2.5 11.8998 2.5 11.365 2.77248C10.8946 3.01217 10.5122 3.39462 10.2725 3.86502C10 4.3998 10 5.09987 10 6.5M9 27.5H16C17.4001 27.5 18.1002 27.5 18.635 27.2275C19.1054 26.9878 19.4878 26.6054 19.7275 26.135C20 25.6002 20 24.9001 20 23.5V11.5C20 10.0999 20 9.3998 19.7275 8.86502C19.4878 8.39462 19.1054 8.01217 18.635 7.77248C18.1002 7.5 17.4001 7.5 16 7.5H9C7.59987 7.5 6.8998 7.5 6.36502 7.77248C5.89462 8.01217 5.51217 8.39462 5.27248 8.86502C5 9.3998 5 10.0999 5 11.5V23.5C5 24.9001 5 25.6002 5.27248 26.135C5.51217 26.6054 5.89462 26.9878 6.36502 27.2275C6.8998 27.5 7.59987 27.5 9 27.5Z" stroke="#EAEAEC"/>
</g>
</svg>
