<svg width="32" height="32" viewBox="0 0 32 32" fill="none" xmlns="http://www.w3.org/2000/svg">
<g id="phone-off">
<path id="Vector" d="M14.24 17.7466C15.5932 19.101 17.1224 20.267 18.7867 21.2133L20.48 19.52C20.8425 19.1615 21.3002 18.9144 21.7988 18.8081C22.2975 18.7017 22.8161 18.7406 23.2934 18.92C24.503 19.3714 25.7599 19.6845 27.04 19.8533C27.6808 19.9439 28.2667 20.2643 28.6886 20.755C29.1106 21.2456 29.3397 21.8729 29.3334 22.52V26.52C29.3349 26.8913 29.2588 27.2589 29.11 27.5991C28.9613 27.9393 28.7431 28.2447 28.4695 28.4958C28.1958 28.7468 27.8728 28.9379 27.521 29.0569C27.1693 29.1759 26.7965 29.2201 26.4267 29.1866C22.3238 28.7408 18.3827 27.3388 14.92 25.0933C13.3137 24.0734 11.8247 22.8795 10.48 21.5333M6.92002 17.08C4.67449 13.6173 3.2725 9.67619 2.82669 5.5733C2.79337 5.20459 2.83719 4.83298 2.95535 4.48213C3.07352 4.13128 3.26345 3.80889 3.51304 3.53546C3.76263 3.26204 4.06643 3.04358 4.40507 2.894C4.74372 2.74441 5.10981 2.66698 5.48002 2.66663H9.48002C10.1271 2.66026 10.7544 2.8894 11.245 3.31134C11.7357 3.73328 12.0561 4.31923 12.1467 4.95997C12.3155 6.24005 12.6286 7.49694 13.08 8.70663C13.2594 9.18386 13.2982 9.70252 13.1919 10.2011C13.0856 10.6998 12.8385 11.1574 12.48 11.52L10.7867 13.2133M29.3334 2.66663L2.66669 29.3333" stroke="white" stroke-linecap="round" stroke-linejoin="round"/>
</g>
</svg>
