<svg width="25" height="24" viewBox="0 0 25 24" fill="none" xmlns="http://www.w3.org/2000/svg">
<g id="Shape">
<path id="Vector" fill-rule="evenodd" clip-rule="evenodd" d="M12.5003 3.1543C7.29572 3.1543 3.07172 6.43544 3.07172 10.4709C3.07172 12.9883 4.70286 15.1852 7.192 16.524L6.14543 20.3614C6.12568 20.4378 6.12975 20.5183 6.15708 20.5923C6.18441 20.6662 6.2337 20.73 6.29833 20.7752C6.36297 20.8203 6.43987 20.8446 6.51871 20.8448C6.59755 20.845 6.67457 20.8211 6.73943 20.7763L11.3217 17.7309C11.7083 17.7309 12.1043 17.7969 12.5003 17.7969C17.7049 17.7969 21.9289 14.5157 21.9289 10.4709C21.9289 6.42601 17.7049 3.1543 12.5003 3.1543Z" fill="#171717"/>
</g>
</svg>
