<svg width="32" height="32" viewBox="0 0 32 32" fill="none" xmlns="http://www.w3.org/2000/svg">
<g id="Frame">
<path id="Vector" d="M20 22.6667H26.6667L24.7934 20.7933C24.5418 20.5417 24.3423 20.243 24.2061 19.9142C24.07 19.5855 24 19.2331 24 18.8773V14.6667C24.0004 13.0119 23.4878 11.3977 22.5326 10.0463C21.5774 8.69504 20.2268 7.67312 18.6667 7.12133V6.66667C18.6667 5.95942 18.3858 5.28115 17.8857 4.78105C17.3856 4.28095 16.7073 4 16 4C15.2928 4 14.6145 4.28095 14.1144 4.78105C13.6143 5.28115 13.3334 5.95942 13.3334 6.66667V7.12133C10.2267 8.22 8.00004 11.184 8.00004 14.6667V18.8787C8.00004 19.596 7.71471 20.2853 7.20671 20.7933L5.33337 22.6667H12M20 22.6667H12M20 22.6667V24C20 25.0609 19.5786 26.0783 18.8285 26.8284C18.0783 27.5786 17.0609 28 16 28C14.9392 28 13.9218 27.5786 13.1716 26.8284C12.4215 26.0783 12 25.0609 12 24V22.6667" stroke="black" stroke-width="2" stroke-linecap="round" stroke-linejoin="round"/>
</g>
</svg>
