<svg width="26" height="27" viewBox="0 0 26 27" fill="none" xmlns="http://www.w3.org/2000/svg">
<path id="Vector" d="M15.4613 1.00012C18.0092 1.26858 20.3891 2.39862 22.2074 4.20335C24.0258 6.00807 25.1737 8.37939 25.4613 10.9251M15.4613 6.00012C16.6907 6.24254 17.8189 6.84891 18.6993 7.74051C19.5798 8.63211 20.1719 9.76778 20.3988 11.0001M25.3988 19.6501V23.4001C25.4003 23.7483 25.3289 24.0928 25.1895 24.4118C25.05 24.7308 24.8455 25.0171 24.5889 25.2525C24.3324 25.4878 24.0296 25.667 23.6998 25.7785C23.37 25.89 23.0206 25.9315 22.6738 25.9001C18.8274 25.4822 15.1326 24.1678 11.8863 22.0626C8.86613 20.1435 6.30551 17.5828 4.38634 14.5626C2.27381 11.3016 0.959146 7.58886 0.548842 3.72512C0.517605 3.37946 0.558686 3.03107 0.669468 2.70215C0.780249 2.37323 0.958306 2.07098 1.1923 1.81465C1.42629 1.55831 1.7111 1.35351 2.02858 1.21327C2.34606 1.07304 2.68927 1.00045 3.03634 1.00012H6.78634C7.39297 0.994151 7.98108 1.20897 8.44104 1.60454C8.90101 2.0001 9.20144 2.54943 9.28634 3.15012C9.44462 4.3502 9.73815 5.52853 10.1613 6.66262C10.3295 7.11003 10.3659 7.59627 10.2662 8.06372C10.1665 8.53118 9.93492 8.96026 9.59884 9.30012L8.01134 10.8876C9.79079 14.0171 12.3819 16.6082 15.5113 18.3876L17.0988 16.8001C17.4387 16.464 17.8678 16.2324 18.3352 16.1327C18.8027 16.033 19.2889 16.0694 19.7363 16.2376C20.8704 16.6608 22.0488 16.9543 23.2488 17.1126C23.856 17.1983 24.4106 17.5041 24.807 17.972C25.2034 18.4399 25.4141 19.0371 25.3988 19.6501Z" stroke="#303030" stroke-opacity="0.88" stroke-linecap="round" stroke-linejoin="round"/>
</svg>
