<svg width="27" height="19" viewBox="0 0 27 19" fill="none" xmlns="http://www.w3.org/2000/svg">
<path id="Vector" d="M16 18.2051C16 16.216 15.2098 14.3083 13.8033 12.9018C12.3968 11.4953 10.4891 10.7051 8.5 10.7051M8.5 10.7051C6.51088 10.7051 4.60322 11.4953 3.1967 12.9018C1.79018 14.3083 1 16.216 1 18.2051M8.5 10.7051C11.2614 10.7051 13.5 8.4665 13.5 5.70508C13.5 2.94365 11.2614 0.705078 8.5 0.705078C5.73858 0.705078 3.5 2.94365 3.5 5.70508C3.5 8.4665 5.73858 10.7051 8.5 10.7051ZM26 18.2051C26 16.216 25.2098 14.3083 23.8033 12.9018C22.3968 11.4953 20.4891 10.7051 18.5 10.7051C19.8261 10.7051 21.0979 10.1783 22.0355 9.24061C22.9732 8.30293 23.5 7.03116 23.5 5.70508C23.5 4.379 22.9732 3.10723 22.0355 2.16954C21.0979 1.23186 19.8261 0.705078 18.5 0.705078" stroke="#303030" stroke-opacity="0.88" stroke-linecap="round" stroke-linejoin="round"/>
</svg>
