<svg width="27" height="27" viewBox="0 0 27 27" fill="none" xmlns="http://www.w3.org/2000/svg">
<path id="Vector" d="M21 23.4551C21 21.466 20.2098 19.5583 18.8033 18.1518C17.3968 16.7453 15.4891 15.9551 13.5 15.9551M13.5 15.9551C11.5109 15.9551 9.60322 16.7453 8.1967 18.1518C6.79018 19.5583 6 21.466 6 23.4551M13.5 15.9551C16.2614 15.9551 18.5 13.7165 18.5 10.9551C18.5 8.19365 16.2614 5.95508 13.5 5.95508C10.7386 5.95508 8.5 8.19365 8.5 10.9551C8.5 13.7165 10.7386 15.9551 13.5 15.9551ZM26 13.4551C26 20.3586 20.4036 25.9551 13.5 25.9551C6.59644 25.9551 1 20.3586 1 13.4551C1 6.55152 6.59644 0.955078 13.5 0.955078C20.4036 0.955078 26 6.55152 26 13.4551Z" stroke="#303030" stroke-opacity="0.88" stroke-linecap="round" stroke-linejoin="round"/>
</svg>
